<?xml version="1.0" encoding="utf-8" standalone="no"?>
<!DOCTYPE svg PUBLIC "-//W3C//DTD SVG 1.1//EN"
  "http://www.w3.org/Graphics/SVG/1.1/DTD/svg11.dtd">
<!-- Created with matplotlib (https://matplotlib.org/) -->
<svg height="1008pt" version="1.1" viewBox="0 0 1440 1008" width="1440pt" xmlns="http://www.w3.org/2000/svg" xmlns:xlink="http://www.w3.org/1999/xlink">
 <defs>
  <style type="text/css">
*{stroke-linecap:butt;stroke-linejoin:round;}
  </style>
 </defs>
 <g id="figure_1">
  <g id="patch_1">
   <path d="M 0 1008 
L 1440 1008 
L 1440 0 
L 0 0 
z
" style="fill:#ffffff;"/>
  </g>
  <g id="axes_1">
   <g id="LineCollection_1">
    <path clip-path="url(#p8e7b672af0)" d="M 539.426143 439.392468 
L 312.667231 573.203625 
" style="fill:none;stroke:#000000;"/>
    <path clip-path="url(#p8e7b672af0)" d="M 539.426143 439.392468 
L 235.057504 495.031854 
" style="fill:none;stroke:#000000;"/>
    <path clip-path="url(#p8e7b672af0)" d="M 539.426143 439.392468 
L 338.248137 326.762535 
" style="fill:none;stroke:#000000;"/>
    <path clip-path="url(#p8e7b672af0)" d="M 539.426143 439.392468 
L 65.454545 305.4676 
" style="fill:none;stroke:#000000;"/>
    <path clip-path="url(#p8e7b672af0)" d="M 539.426143 439.392468 
L 555.400369 304.669621 
" style="fill:none;stroke:#000000;"/>
    <path clip-path="url(#p8e7b672af0)" d="M 539.426143 439.392468 
L 923.370531 299.857647 
" style="fill:none;stroke:#000000;"/>
    <path clip-path="url(#p8e7b672af0)" d="M 312.667231 573.203625 
L 235.057504 495.031854 
" style="fill:none;stroke:#000000;"/>
    <path clip-path="url(#p8e7b672af0)" d="M 312.667231 573.203625 
L 266.086692 202.730715 
" style="fill:none;stroke:#000000;"/>
    <path clip-path="url(#p8e7b672af0)" d="M 312.667231 573.203625 
L 338.248137 326.762535 
" style="fill:none;stroke:#000000;"/>
    <path clip-path="url(#p8e7b672af0)" d="M 312.667231 573.203625 
L 65.454545 305.4676 
" style="fill:none;stroke:#000000;"/>
    <path clip-path="url(#p8e7b672af0)" d="M 312.667231 573.203625 
L 555.400369 304.669621 
" style="fill:none;stroke:#000000;"/>
    <path clip-path="url(#p8e7b672af0)" d="M 312.667231 573.203625 
L 286.279967 882.568313 
" style="fill:none;stroke:#000000;"/>
    <path clip-path="url(#p8e7b672af0)" d="M 202.174396 45.818182 
L 235.057504 495.031854 
" style="fill:none;stroke:#000000;"/>
    <path clip-path="url(#p8e7b672af0)" d="M 202.174396 45.818182 
L 266.086692 202.730715 
" style="fill:none;stroke:#000000;"/>
    <path clip-path="url(#p8e7b672af0)" d="M 202.174396 45.818182 
L 338.248137 326.762535 
" style="fill:none;stroke:#000000;"/>
    <path clip-path="url(#p8e7b672af0)" d="M 202.174396 45.818182 
L 564.37123 74.541661 
" style="fill:none;stroke:#000000;"/>
    <path clip-path="url(#p8e7b672af0)" d="M 202.174396 45.818182 
L 65.454545 305.4676 
" style="fill:none;stroke:#000000;"/>
    <path clip-path="url(#p8e7b672af0)" d="M 202.174396 45.818182 
L 555.400369 304.669621 
" style="fill:none;stroke:#000000;"/>
    <path clip-path="url(#p8e7b672af0)" d="M 235.057504 495.031854 
L 266.086692 202.730715 
" style="fill:none;stroke:#000000;"/>
    <path clip-path="url(#p8e7b672af0)" d="M 235.057504 495.031854 
L 338.248137 326.762535 
" style="fill:none;stroke:#000000;"/>
    <path clip-path="url(#p8e7b672af0)" d="M 235.057504 495.031854 
L 564.37123 74.541661 
" style="fill:none;stroke:#000000;"/>
    <path clip-path="url(#p8e7b672af0)" d="M 235.057504 495.031854 
L 65.454545 305.4676 
" style="fill:none;stroke:#000000;"/>
    <path clip-path="url(#p8e7b672af0)" d="M 235.057504 495.031854 
L 555.400369 304.669621 
" style="fill:none;stroke:#000000;"/>
    <path clip-path="url(#p8e7b672af0)" d="M 235.057504 495.031854 
L 97.774445 962.181818 
" style="fill:none;stroke:#000000;"/>
    <path clip-path="url(#p8e7b672af0)" d="M 235.057504 495.031854 
L 286.279967 882.568313 
" style="fill:none;stroke:#000000;"/>
    <path clip-path="url(#p8e7b672af0)" d="M 266.086692 202.730715 
L 338.248137 326.762535 
" style="fill:none;stroke:#000000;"/>
    <path clip-path="url(#p8e7b672af0)" d="M 266.086692 202.730715 
L 564.37123 74.541661 
" style="fill:none;stroke:#000000;"/>
    <path clip-path="url(#p8e7b672af0)" d="M 266.086692 202.730715 
L 65.454545 305.4676 
" style="fill:none;stroke:#000000;"/>
    <path clip-path="url(#p8e7b672af0)" d="M 266.086692 202.730715 
L 555.400369 304.669621 
" style="fill:none;stroke:#000000;"/>
    <path clip-path="url(#p8e7b672af0)" d="M 338.248137 326.762535 
L 564.37123 74.541661 
" style="fill:none;stroke:#000000;"/>
    <path clip-path="url(#p8e7b672af0)" d="M 338.248137 326.762535 
L 65.454545 305.4676 
" style="fill:none;stroke:#000000;"/>
    <path clip-path="url(#p8e7b672af0)" d="M 338.248137 326.762535 
L 555.400369 304.669621 
" style="fill:none;stroke:#000000;"/>
    <path clip-path="url(#p8e7b672af0)" d="M 564.37123 74.541661 
L 923.370531 299.857647 
" style="fill:none;stroke:#000000;"/>
    <path clip-path="url(#p8e7b672af0)" d="M 1158.361443 807.494205 
L 1374.545455 536.398941 
" style="fill:none;stroke:#000000;"/>
    <path clip-path="url(#p8e7b672af0)" d="M 97.774445 962.181818 
L 286.279967 882.568313 
" style="fill:none;stroke:#000000;"/>
   </g>
   <g id="text_1">
    <g id="patch_2">
     <path clip-path="url(#p8e7b672af0)" d="M 403.630732 555.93444 
L 480.334061 510.671561 
Q 490.668825 504.572984 484.570248 494.23822 
L 464.895983 460.897839 
Q 458.797406 450.563075 448.462642 456.661652 
L 371.759312 501.924531 
Q 361.424548 508.023109 367.523126 518.357873 
L 387.19739 551.698253 
Q 393.295968 562.033018 403.630732 555.93444 
z
" style="fill:#ffffff;stroke:#ffffff;stroke-linejoin:miter;"/>
    </g>
    <g clip-path="url(#p8e7b672af0)">
     <!-- 0.26 -->
     <defs>
      <path d="M 31.78125 66.40625 
Q 24.171875 66.40625 20.328125 58.90625 
Q 16.5 51.421875 16.5 36.375 
Q 16.5 21.390625 20.328125 13.890625 
Q 24.171875 6.390625 31.78125 6.390625 
Q 39.453125 6.390625 43.28125 13.890625 
Q 47.125 21.390625 47.125 36.375 
Q 47.125 51.421875 43.28125 58.90625 
Q 39.453125 66.40625 31.78125 66.40625 
z
M 31.78125 74.21875 
Q 44.046875 74.21875 50.515625 64.515625 
Q 56.984375 54.828125 56.984375 36.375 
Q 56.984375 17.96875 50.515625 8.265625 
Q 44.046875 -1.421875 31.78125 -1.421875 
Q 19.53125 -1.421875 13.0625 8.265625 
Q 6.59375 17.96875 6.59375 36.375 
Q 6.59375 54.828125 13.0625 64.515625 
Q 19.53125 74.21875 31.78125 74.21875 
z
" id="DejaVuSans-48"/>
      <path d="M 10.6875 12.40625 
L 21 12.40625 
L 21 0 
L 10.6875 0 
z
" id="DejaVuSans-46"/>
      <path d="M 19.1875 8.296875 
L 53.609375 8.296875 
L 53.609375 0 
L 7.328125 0 
L 7.328125 8.296875 
Q 12.9375 14.109375 22.625 23.890625 
Q 32.328125 33.6875 34.8125 36.53125 
Q 39.546875 41.84375 41.421875 45.53125 
Q 43.3125 49.21875 43.3125 52.78125 
Q 43.3125 58.59375 39.234375 62.25 
Q 35.15625 65.921875 28.609375 65.921875 
Q 23.96875 65.921875 18.8125 64.3125 
Q 13.671875 62.703125 7.8125 59.421875 
L 7.8125 69.390625 
Q 13.765625 71.78125 18.9375 73 
Q 24.125 74.21875 28.421875 74.21875 
Q 39.75 74.21875 46.484375 68.546875 
Q 53.21875 62.890625 53.21875 53.421875 
Q 53.21875 48.921875 51.53125 44.890625 
Q 49.859375 40.875 45.40625 35.40625 
Q 44.1875 33.984375 37.640625 27.21875 
Q 31.109375 20.453125 19.1875 8.296875 
z
" id="DejaVuSans-50"/>
      <path d="M 33.015625 40.375 
Q 26.375 40.375 22.484375 35.828125 
Q 18.609375 31.296875 18.609375 23.390625 
Q 18.609375 15.53125 22.484375 10.953125 
Q 26.375 6.390625 33.015625 6.390625 
Q 39.65625 6.390625 43.53125 10.953125 
Q 47.40625 15.53125 47.40625 23.390625 
Q 47.40625 31.296875 43.53125 35.828125 
Q 39.65625 40.375 33.015625 40.375 
z
M 52.59375 71.296875 
L 52.59375 62.3125 
Q 48.875 64.0625 45.09375 64.984375 
Q 41.3125 65.921875 37.59375 65.921875 
Q 27.828125 65.921875 22.671875 59.328125 
Q 17.53125 52.734375 16.796875 39.40625 
Q 19.671875 43.65625 24.015625 45.921875 
Q 28.375 48.1875 33.59375 48.1875 
Q 44.578125 48.1875 50.953125 41.515625 
Q 57.328125 34.859375 57.328125 23.390625 
Q 57.328125 12.15625 50.6875 5.359375 
Q 44.046875 -1.421875 33.015625 -1.421875 
Q 20.359375 -1.421875 13.671875 8.265625 
Q 6.984375 17.96875 6.984375 36.375 
Q 6.984375 53.65625 15.1875 63.9375 
Q 23.390625 74.21875 37.203125 74.21875 
Q 40.921875 74.21875 44.703125 73.484375 
Q 48.484375 72.75 52.59375 71.296875 
z
" id="DejaVuSans-54"/>
     </defs>
     <g transform="translate(393.304443 538.435316)rotate(-30.54499)scale(0.4 -0.4)">
      <use xlink:href="#DejaVuSans-48"/>
      <use x="63.623047" xlink:href="#DejaVuSans-46"/>
      <use x="95.410156" xlink:href="#DejaVuSans-50"/>
      <use x="159.033203" xlink:href="#DejaVuSans-54"/>
     </g>
    </g>
   </g>
   <g id="text_2">
    <g id="patch_3">
     <path clip-path="url(#p8e7b672af0)" d="M 349.075044 506.065006 
L 436.685738 490.049541 
Q 448.490127 487.891668 446.332254 476.08728 
L 439.370865 438.005831 
Q 437.212992 426.201443 425.408603 428.359316 
L 337.797909 444.374781 
Q 325.993521 446.532654 328.151394 458.337042 
L 335.112782 496.418491 
Q 337.270656 508.222879 349.075044 506.065006 
z
" style="fill:#ffffff;stroke:#ffffff;stroke-linejoin:miter;"/>
    </g>
    <g clip-path="url(#p8e7b672af0)">
     <!-- 1.41 -->
     <defs>
      <path d="M 12.40625 8.296875 
L 28.515625 8.296875 
L 28.515625 63.921875 
L 10.984375 60.40625 
L 10.984375 69.390625 
L 28.421875 72.90625 
L 38.28125 72.90625 
L 38.28125 8.296875 
L 54.390625 8.296875 
L 54.390625 0 
L 12.40625 0 
z
" id="DejaVuSans-49"/>
      <path d="M 37.796875 64.3125 
L 12.890625 25.390625 
L 37.796875 25.390625 
z
M 35.203125 72.90625 
L 47.609375 72.90625 
L 47.609375 25.390625 
L 58.015625 25.390625 
L 58.015625 17.1875 
L 47.609375 17.1875 
L 47.609375 0 
L 37.796875 0 
L 37.796875 17.1875 
L 4.890625 17.1875 
L 4.890625 26.703125 
z
" id="DejaVuSans-52"/>
     </defs>
     <g transform="translate(345.42127 486.077472)rotate(-10.359437)scale(0.4 -0.4)">
      <use xlink:href="#DejaVuSans-49"/>
      <use x="63.623047" xlink:href="#DejaVuSans-46"/>
      <use x="95.410156" xlink:href="#DejaVuSans-52"/>
      <use x="159.033203" xlink:href="#DejaVuSans-49"/>
     </g>
    </g>
   </g>
   <g id="text_3">
    <g id="patch_4">
     <path clip-path="url(#p8e7b672af0)" d="M 384.663218 388.683998 
L 462.375684 432.191487 
Q 472.846416 438.053549 478.708478 427.582816 
L 497.619733 393.803798 
Q 503.481794 383.333066 493.011062 377.471004 
L 415.298596 333.963515 
Q 404.827864 328.101454 398.965802 338.572186 
L 380.054547 372.351204 
Q 374.192486 382.821937 384.663218 388.683998 
z
" style="fill:#ffffff;stroke:#ffffff;stroke-linejoin:miter;"/>
    </g>
    <g clip-path="url(#p8e7b672af0)">
     <!-- 1.14 -->
     <g transform="translate(394.589032 370.954649)rotate(-330.757624)scale(0.4 -0.4)">
      <use xlink:href="#DejaVuSans-49"/>
      <use x="63.623047" xlink:href="#DejaVuSans-46"/>
      <use x="95.410156" xlink:href="#DejaVuSans-49"/>
      <use x="159.033203" xlink:href="#DejaVuSans-52"/>
     </g>
    </g>
   </g>
   <g id="text_4">
    <g id="patch_5">
     <path clip-path="url(#p8e7b672af0)" d="M 251.060786 390.496235 
L 336.767585 414.713449 
Q 348.315448 417.9764 351.578399 406.428537 
L 362.104815 369.174648 
Q 365.367766 357.626784 353.819903 354.363833 
L 268.113103 330.146619 
Q 256.56524 326.883668 253.302289 338.431532 
L 242.775873 375.68542 
Q 239.512922 387.233284 251.060786 390.496235 
z
" style="fill:#ffffff;stroke:#ffffff;stroke-linejoin:miter;"/>
    </g>
    <g clip-path="url(#p8e7b672af0)">
     <!-- 0.65 -->
     <defs>
      <path d="M 10.796875 72.90625 
L 49.515625 72.90625 
L 49.515625 64.59375 
L 19.828125 64.59375 
L 19.828125 46.734375 
Q 21.96875 47.46875 24.109375 47.828125 
Q 26.265625 48.1875 28.421875 48.1875 
Q 40.625 48.1875 47.75 41.5 
Q 54.890625 34.8125 54.890625 23.390625 
Q 54.890625 11.625 47.5625 5.09375 
Q 40.234375 -1.421875 26.90625 -1.421875 
Q 22.3125 -1.421875 17.546875 -0.640625 
Q 12.796875 0.140625 7.71875 1.703125 
L 7.71875 11.625 
Q 12.109375 9.234375 16.796875 8.0625 
Q 21.484375 6.890625 26.703125 6.890625 
Q 35.15625 6.890625 40.078125 11.328125 
Q 45.015625 15.765625 45.015625 23.390625 
Q 45.015625 31 40.078125 35.4375 
Q 35.15625 39.890625 26.703125 39.890625 
Q 22.75 39.890625 18.8125 39.015625 
Q 14.890625 38.140625 10.796875 36.28125 
z
" id="DejaVuSans-53"/>
     </defs>
     <g transform="translate(256.585709 370.943055)rotate(-344.221892)scale(0.4 -0.4)">
      <use xlink:href="#DejaVuSans-48"/>
      <use x="63.623047" xlink:href="#DejaVuSans-46"/>
      <use x="95.410156" xlink:href="#DejaVuSans-54"/>
      <use x="159.033203" xlink:href="#DejaVuSans-53"/>
     </g>
    </g>
   </g>
   <g id="text_5">
    <g id="patch_6">
     <path clip-path="url(#p8e7b672af0)" d="M 573.307997 419.944602 
L 583.794769 331.501646 
Q 585.207724 319.585121 573.291199 318.172167 
L 534.847994 313.613916 
Q 522.93147 312.200962 521.518515 324.117487 
L 511.031743 412.560443 
Q 509.618788 424.476967 521.535313 425.889922 
L 559.978518 430.448172 
Q 571.895043 431.861127 573.307997 419.944602 
z
" style="fill:#ffffff;stroke:#ffffff;stroke-linejoin:miter;"/>
    </g>
    <g clip-path="url(#p8e7b672af0)">
     <!-- 0.97 -->
     <defs>
      <path d="M 10.984375 1.515625 
L 10.984375 10.5 
Q 14.703125 8.734375 18.5 7.8125 
Q 22.3125 6.890625 25.984375 6.890625 
Q 35.75 6.890625 40.890625 13.453125 
Q 46.046875 20.015625 46.78125 33.40625 
Q 43.953125 29.203125 39.59375 26.953125 
Q 35.25 24.703125 29.984375 24.703125 
Q 19.046875 24.703125 12.671875 31.3125 
Q 6.296875 37.9375 6.296875 49.421875 
Q 6.296875 60.640625 12.9375 67.421875 
Q 19.578125 74.21875 30.609375 74.21875 
Q 43.265625 74.21875 49.921875 64.515625 
Q 56.59375 54.828125 56.59375 36.375 
Q 56.59375 19.140625 48.40625 8.859375 
Q 40.234375 -1.421875 26.421875 -1.421875 
Q 22.703125 -1.421875 18.890625 -0.6875 
Q 15.09375 0.046875 10.984375 1.515625 
z
M 30.609375 32.421875 
Q 37.25 32.421875 41.125 36.953125 
Q 45.015625 41.5 45.015625 49.421875 
Q 45.015625 57.28125 41.125 61.84375 
Q 37.25 66.40625 30.609375 66.40625 
Q 23.96875 66.40625 20.09375 61.84375 
Q 16.21875 57.28125 16.21875 49.421875 
Q 16.21875 41.5 20.09375 36.953125 
Q 23.96875 32.421875 30.609375 32.421875 
z
" id="DejaVuSans-57"/>
      <path d="M 8.203125 72.90625 
L 55.078125 72.90625 
L 55.078125 68.703125 
L 28.609375 0 
L 18.3125 0 
L 43.21875 64.59375 
L 8.203125 64.59375 
z
" id="DejaVuSans-55"/>
     </defs>
     <g transform="translate(553.13059 417.552146)rotate(-83.237952)scale(0.4 -0.4)">
      <use xlink:href="#DejaVuSans-48"/>
      <use x="63.623047" xlink:href="#DejaVuSans-46"/>
      <use x="95.410156" xlink:href="#DejaVuSans-57"/>
      <use x="159.033203" xlink:href="#DejaVuSans-55"/>
     </g>
    </g>
   </g>
   <g id="text_6">
    <g id="patch_7">
     <path clip-path="url(#p8e7b672af0)" d="M 700.255583 414.305875 
L 783.961627 383.885043 
Q 795.239915 379.786236 791.141108 368.507948 
L 777.918186 332.123721 
Q 773.819379 320.845433 762.541091 324.94424 
L 678.835047 355.365072 
Q 667.556759 359.463879 671.655566 370.742167 
L 684.878488 407.126394 
Q 688.977295 418.404682 700.255583 414.305875 
z
" style="fill:#ffffff;stroke:#ffffff;stroke-linejoin:miter;"/>
    </g>
    <g clip-path="url(#p8e7b672af0)">
     <!-- 1.10 -->
     <g transform="translate(693.315363 395.209149)rotate(-19.972388)scale(0.4 -0.4)">
      <use xlink:href="#DejaVuSans-49"/>
      <use x="63.623047" xlink:href="#DejaVuSans-46"/>
      <use x="95.410156" xlink:href="#DejaVuSans-49"/>
      <use x="159.033203" xlink:href="#DejaVuSans-48"/>
     </g>
    </g>
   </g>
   <g id="text_7">
    <g id="patch_8">
     <path clip-path="url(#p8e7b672af0)" d="M 220.235762 524.608068 
L 282.984838 587.811568 
Q 291.43945 596.327408 299.95529 587.872795 
L 327.427745 560.597864 
Q 335.943585 552.143252 327.488973 543.627412 
L 264.739897 480.423911 
Q 256.285285 471.908071 247.769445 480.362684 
L 220.29699 507.637615 
Q 211.78115 516.092227 220.235762 524.608068 
z
" style="fill:#ffffff;stroke:#ffffff;stroke-linejoin:miter;"/>
    </g>
    <g clip-path="url(#p8e7b672af0)">
     <!-- 0.47 -->
     <g transform="translate(234.655031 510.292471)rotate(-314.793283)scale(0.4 -0.4)">
      <use xlink:href="#DejaVuSans-48"/>
      <use x="63.623047" xlink:href="#DejaVuSans-46"/>
      <use x="95.410156" xlink:href="#DejaVuSans-52"/>
      <use x="159.033203" xlink:href="#DejaVuSans-55"/>
     </g>
    </g>
   </g>
   <g id="text_8">
    <g id="patch_9">
     <path clip-path="url(#p8e7b672af0)" d="M 252.710369 347.695497 
L 263.820955 436.062255 
Q 265.31796 447.968512 277.224218 446.471507 
L 315.634302 441.642106 
Q 327.540559 440.1451 326.043554 428.238843 
L 314.932968 339.872085 
Q 313.435963 327.965828 301.529705 329.462833 
L 263.119621 334.292234 
Q 251.213363 335.78924 252.710369 347.695497 
z
" style="fill:#ffffff;stroke:#ffffff;stroke-linejoin:miter;"/>
    </g>
    <g clip-path="url(#p8e7b672af0)">
     <!-- 0.60 -->
     <g transform="translate(272.870392 345.160724)rotate(-277.166344)scale(0.4 -0.4)">
      <use xlink:href="#DejaVuSans-48"/>
      <use x="63.623047" xlink:href="#DejaVuSans-46"/>
      <use x="95.410156" xlink:href="#DejaVuSans-54"/>
      <use x="159.033203" xlink:href="#DejaVuSans-48"/>
     </g>
    </g>
   </g>
   <g id="text_9">
    <g id="patch_10">
     <path clip-path="url(#p8e7b672af0)" d="M 352.048661 497.513771 
L 361.244058 408.927239 
Q 362.483017 396.99137 350.547148 395.752411 
L 312.041535 391.755478 
Q 300.105666 390.516519 298.866707 402.452389 
L 289.671309 491.03892 
Q 288.432351 502.97479 300.36822 504.213749 
L 338.873832 508.210681 
Q 350.809702 509.44964 352.048661 497.513771 
z
" style="fill:#ffffff;stroke:#ffffff;stroke-linejoin:miter;"/>
    </g>
    <g clip-path="url(#p8e7b672af0)">
     <!-- 0.80 -->
     <defs>
      <path d="M 31.78125 34.625 
Q 24.75 34.625 20.71875 30.859375 
Q 16.703125 27.09375 16.703125 20.515625 
Q 16.703125 13.921875 20.71875 10.15625 
Q 24.75 6.390625 31.78125 6.390625 
Q 38.8125 6.390625 42.859375 10.171875 
Q 46.921875 13.96875 46.921875 20.515625 
Q 46.921875 27.09375 42.890625 30.859375 
Q 38.875 34.625 31.78125 34.625 
z
M 21.921875 38.8125 
Q 15.578125 40.375 12.03125 44.71875 
Q 8.5 49.078125 8.5 55.328125 
Q 8.5 64.0625 14.71875 69.140625 
Q 20.953125 74.21875 31.78125 74.21875 
Q 42.671875 74.21875 48.875 69.140625 
Q 55.078125 64.0625 55.078125 55.328125 
Q 55.078125 49.078125 51.53125 44.71875 
Q 48 40.375 41.703125 38.8125 
Q 48.828125 37.15625 52.796875 32.3125 
Q 56.78125 27.484375 56.78125 20.515625 
Q 56.78125 9.90625 50.3125 4.234375 
Q 43.84375 -1.421875 31.78125 -1.421875 
Q 19.734375 -1.421875 13.25 4.234375 
Q 6.78125 9.90625 6.78125 20.515625 
Q 6.78125 27.484375 10.78125 32.3125 
Q 14.796875 37.15625 21.921875 38.8125 
z
M 18.3125 54.390625 
Q 18.3125 48.734375 21.84375 45.5625 
Q 25.390625 42.390625 31.78125 42.390625 
Q 38.140625 42.390625 41.71875 45.5625 
Q 45.3125 48.734375 45.3125 54.390625 
Q 45.3125 60.0625 41.71875 63.234375 
Q 38.140625 66.40625 31.78125 66.40625 
Q 25.390625 66.40625 21.84375 63.234375 
Q 18.3125 60.0625 18.3125 54.390625 
z
" id="DejaVuSans-56"/>
     </defs>
     <g transform="translate(331.838498 495.41593)rotate(-84.073847)scale(0.4 -0.4)">
      <use xlink:href="#DejaVuSans-48"/>
      <use x="63.623047" xlink:href="#DejaVuSans-46"/>
      <use x="95.410156" xlink:href="#DejaVuSans-56"/>
      <use x="159.033203" xlink:href="#DejaVuSans-48"/>
     </g>
    </g>
   </g>
   <g id="text_10">
    <g id="patch_11">
     <path clip-path="url(#p8e7b672af0)" d="M 135.81389 427.889919 
L 196.232678 493.324612 
Q 204.373315 502.141076 213.189779 494.000439 
L 241.632058 467.738406 
Q 250.448522 459.59777 242.307886 450.781306 
L 181.889098 385.346613 
Q 173.748461 376.530149 164.931997 384.670786 
L 136.489718 410.932819 
Q 127.673254 419.073456 135.81389 427.889919 
z
" style="fill:#ffffff;stroke:#ffffff;stroke-linejoin:miter;"/>
    </g>
    <g clip-path="url(#p8e7b672af0)">
     <!-- 0.66 -->
     <g transform="translate(150.742184 414.105956)rotate(-312.717678)scale(0.4 -0.4)">
      <use xlink:href="#DejaVuSans-48"/>
      <use x="63.623047" xlink:href="#DejaVuSans-46"/>
      <use x="95.410156" xlink:href="#DejaVuSans-54"/>
      <use x="159.033203" xlink:href="#DejaVuSans-54"/>
     </g>
    </g>
   </g>
   <g id="text_11">
    <g id="patch_12">
     <path clip-path="url(#p8e7b672af0)" d="M 427.434023 492.998528 
L 487.156631 426.927816 
Q 495.203467 418.025657 486.301308 409.978822 
L 457.582572 384.019394 
Q 448.680413 375.972559 440.633577 384.874718 
L 380.910969 450.945429 
Q 372.864133 459.847588 381.766292 467.894424 
L 410.485028 493.853851 
Q 419.387187 501.900687 427.434023 492.998528 
z
" style="fill:#ffffff;stroke:#ffffff;stroke-linejoin:miter;"/>
    </g>
    <g clip-path="url(#p8e7b672af0)">
     <!-- 0.72 -->
     <g transform="translate(412.360627 479.373391)rotate(-47.888955)scale(0.4 -0.4)">
      <use xlink:href="#DejaVuSans-48"/>
      <use x="63.623047" xlink:href="#DejaVuSans-46"/>
      <use x="95.410156" xlink:href="#DejaVuSans-55"/>
      <use x="159.033203" xlink:href="#DejaVuSans-50"/>
     </g>
    </g>
   </g>
   <g id="text_12">
    <g id="patch_13">
     <path clip-path="url(#p8e7b672af0)" d="M 326.931854 774.920965 
L 334.500957 686.180684 
Q 335.520794 674.224098 323.564209 673.204261 
L 284.991766 669.914224 
Q 273.035181 668.894387 272.015344 680.850973 
L 264.446241 769.591254 
Q 263.426404 781.54784 275.382989 782.567677 
L 313.955431 785.857713 
Q 325.912017 786.877551 326.931854 774.920965 
z
" style="fill:#ffffff;stroke:#ffffff;stroke-linejoin:miter;"/>
    </g>
    <g clip-path="url(#p8e7b672af0)">
     <!-- 0.80 -->
     <g transform="translate(306.686615 773.194147)rotate(-85.124756)scale(0.4 -0.4)">
      <use xlink:href="#DejaVuSans-48"/>
      <use x="63.623047" xlink:href="#DejaVuSans-46"/>
      <use x="95.410156" xlink:href="#DejaVuSans-56"/>
      <use x="159.033203" xlink:href="#DejaVuSans-48"/>
     </g>
    </g>
   </g>
   <g id="text_13">
    <g id="patch_14">
     <path clip-path="url(#p8e7b672af0)" d="M 184.09232 228.301799 
L 190.59443 317.126635 
Q 191.470503 329.094613 203.438481 328.218539 
L 242.047677 325.392289 
Q 254.015654 324.516215 253.139581 312.548237 
L 246.637471 223.723401 
Q 245.761397 211.755423 233.793419 212.631497 
L 195.184224 215.457747 
Q 183.216246 216.333821 184.09232 228.301799 
z
" style="fill:#ffffff;stroke:#ffffff;stroke-linejoin:miter;"/>
    </g>
    <g clip-path="url(#p8e7b672af0)">
     <!-- 0.31 -->
     <defs>
      <path d="M 40.578125 39.3125 
Q 47.65625 37.796875 51.625 33 
Q 55.609375 28.21875 55.609375 21.1875 
Q 55.609375 10.40625 48.1875 4.484375 
Q 40.765625 -1.421875 27.09375 -1.421875 
Q 22.515625 -1.421875 17.65625 -0.515625 
Q 12.796875 0.390625 7.625 2.203125 
L 7.625 11.71875 
Q 11.71875 9.328125 16.59375 8.109375 
Q 21.484375 6.890625 26.8125 6.890625 
Q 36.078125 6.890625 40.9375 10.546875 
Q 45.796875 14.203125 45.796875 21.1875 
Q 45.796875 27.640625 41.28125 31.265625 
Q 36.765625 34.90625 28.71875 34.90625 
L 20.21875 34.90625 
L 20.21875 43.015625 
L 29.109375 43.015625 
Q 36.375 43.015625 40.234375 45.921875 
Q 44.09375 48.828125 44.09375 54.296875 
Q 44.09375 59.90625 40.109375 62.90625 
Q 36.140625 65.921875 28.71875 65.921875 
Q 24.65625 65.921875 20.015625 65.03125 
Q 15.375 64.15625 9.8125 62.3125 
L 9.8125 71.09375 
Q 15.4375 72.65625 20.34375 73.4375 
Q 25.25 74.21875 29.59375 74.21875 
Q 40.828125 74.21875 47.359375 69.109375 
Q 53.90625 64.015625 53.90625 55.328125 
Q 53.90625 49.265625 50.4375 45.09375 
Q 46.96875 40.921875 40.578125 39.3125 
z
" id="DejaVuSans-51"/>
     </defs>
     <g transform="translate(204.356849 226.818405)rotate(-274.186669)scale(0.4 -0.4)">
      <use xlink:href="#DejaVuSans-48"/>
      <use x="63.623047" xlink:href="#DejaVuSans-46"/>
      <use x="95.410156" xlink:href="#DejaVuSans-51"/>
      <use x="159.033203" xlink:href="#DejaVuSans-49"/>
     </g>
    </g>
   </g>
   <g id="text_14">
    <g id="patch_15">
     <path clip-path="url(#p8e7b672af0)" d="M 188.292675 94.861247 
L 221.888902 177.344109 
Q 226.415552 188.457589 237.529032 183.930939 
L 273.381582 169.32778 
Q 284.495063 164.80113 279.968413 153.68765 
L 246.372186 71.204788 
Q 241.845537 60.091308 230.732056 64.617957 
L 194.879506 79.221117 
Q 183.766026 83.747767 188.292675 94.861247 
z
" style="fill:#ffffff;stroke:#ffffff;stroke-linejoin:miter;"/>
    </g>
    <g clip-path="url(#p8e7b672af0)">
     <!-- 0.22 -->
     <g transform="translate(207.110344 87.196592)rotate(-292.161638)scale(0.4 -0.4)">
      <use xlink:href="#DejaVuSans-48"/>
      <use x="63.623047" xlink:href="#DejaVuSans-46"/>
      <use x="95.410156" xlink:href="#DejaVuSans-50"/>
      <use x="159.033203" xlink:href="#DejaVuSans-50"/>
     </g>
    </g>
   </g>
   <g id="text_15">
    <g id="patch_16">
     <path clip-path="url(#p8e7b672af0)" d="M 222.579449 159.880954 
L 261.402321 240.036513 
Q 266.633192 250.83642 277.433099 245.605548 
L 312.274048 228.73054 
Q 323.073955 223.499669 317.843084 212.699762 
L 279.020212 132.544204 
Q 273.789341 121.744297 262.989434 126.975168 
L 228.148485 143.850177 
Q 217.348578 149.081048 222.579449 159.880954 
z
" style="fill:#ffffff;stroke:#ffffff;stroke-linejoin:miter;"/>
    </g>
    <g clip-path="url(#p8e7b672af0)">
     <!-- 0.31 -->
     <g transform="translate(240.866166 151.023891)rotate(-295.842954)scale(0.4 -0.4)">
      <use xlink:href="#DejaVuSans-48"/>
      <use x="63.623047" xlink:href="#DejaVuSans-46"/>
      <use x="95.410156" xlink:href="#DejaVuSans-51"/>
      <use x="159.033203" xlink:href="#DejaVuSans-49"/>
     </g>
    </g>
   </g>
   <g id="text_16">
    <g id="patch_17">
     <path clip-path="url(#p8e7b672af0)" d="M 336.402058 87.917602 
L 425.185813 94.958465 
Q 437.148255 95.907129 438.096919 83.944686 
L 441.157347 45.353347 
Q 442.106011 33.390905 430.143568 32.442241 
L 341.359813 25.401378 
Q 329.397371 24.452714 328.448707 36.415157 
L 325.388278 75.006496 
Q 324.439615 86.968938 336.402058 87.917602 
z
" style="fill:#ffffff;stroke:#ffffff;stroke-linejoin:miter;"/>
    </g>
    <g clip-path="url(#p8e7b672af0)">
     <!-- 0.70 -->
     <g transform="translate(338.008363 67.662445)rotate(-355.465733)scale(0.4 -0.4)">
      <use xlink:href="#DejaVuSans-48"/>
      <use x="63.623047" xlink:href="#DejaVuSans-46"/>
      <use x="95.410156" xlink:href="#DejaVuSans-55"/>
      <use x="159.033203" xlink:href="#DejaVuSans-48"/>
     </g>
    </g>
   </g>
   <g id="text_17">
    <g id="patch_18">
     <path clip-path="url(#p8e7b672af0)" d="M 140.811776 229.654782 
L 182.307115 150.849542 
Q 187.898066 140.231573 177.280096 134.640622 
L 143.026086 116.603982 
Q 132.408117 111.013031 126.817166 121.631 
L 85.321827 200.43624 
Q 79.730876 211.054209 90.348845 216.64516 
L 124.602856 234.6818 
Q 135.220825 240.272751 140.811776 229.654782 
z
" style="fill:#ffffff;stroke:#ffffff;stroke-linejoin:miter;"/>
    </g>
    <g clip-path="url(#p8e7b672af0)">
     <!-- 0.92 -->
     <g transform="translate(122.833121 220.188021)rotate(-62.230702)scale(0.4 -0.4)">
      <use xlink:href="#DejaVuSans-48"/>
      <use x="63.623047" xlink:href="#DejaVuSans-46"/>
      <use x="95.410156" xlink:href="#DejaVuSans-57"/>
      <use x="159.033203" xlink:href="#DejaVuSans-50"/>
     </g>
    </g>
   </g>
   <g id="text_18">
    <g id="patch_19">
     <path clip-path="url(#p8e7b672af0)" d="M 324.333867 174.213718 
L 396.171857 226.858112 
Q 405.851081 233.951251 412.94422 224.272027 
L 435.826983 193.046447 
Q 442.920122 183.367224 433.240898 176.274084 
L 361.402909 123.629691 
Q 351.723685 116.536552 344.630545 126.215776 
L 321.747782 157.441355 
Q 314.654643 167.120579 324.333867 174.213718 
z
" style="fill:#ffffff;stroke:#ffffff;stroke-linejoin:miter;"/>
    </g>
    <g clip-path="url(#p8e7b672af0)">
     <!-- 0.51 -->
     <g transform="translate(336.344177 157.824574)rotate(-323.765253)scale(0.4 -0.4)">
      <use xlink:href="#DejaVuSans-48"/>
      <use x="63.623047" xlink:href="#DejaVuSans-46"/>
      <use x="95.410156" xlink:href="#DejaVuSans-53"/>
      <use x="159.033203" xlink:href="#DejaVuSans-49"/>
     </g>
    </g>
   </g>
   <g id="text_19">
    <g id="patch_20">
     <path clip-path="url(#p8e7b672af0)" d="M 277.052356 396.473748 
L 286.45395 307.908863 
Q 287.720691 295.97591 275.787738 294.709168 
L 237.291534 290.622609 
Q 225.358581 289.355868 224.09184 301.288821 
L 214.690247 389.853707 
Q 213.423506 401.78666 225.356459 403.053401 
L 263.852662 407.13996 
Q 275.785615 408.406701 277.052356 396.473748 
z
" style="fill:#ffffff;stroke:#ffffff;stroke-linejoin:miter;"/>
    </g>
    <g clip-path="url(#p8e7b672af0)">
     <!-- 0.54 -->
     <g transform="translate(256.847132 394.328865)rotate(-83.940468)scale(0.4 -0.4)">
      <use xlink:href="#DejaVuSans-48"/>
      <use x="63.623047" xlink:href="#DejaVuSans-46"/>
      <use x="95.410156" xlink:href="#DejaVuSans-53"/>
      <use x="159.033203" xlink:href="#DejaVuSans-52"/>
     </g>
    </g>
   </g>
   <g id="text_20">
    <g id="patch_21">
     <path clip-path="url(#p8e7b672af0)" d="M 290.103282 465.251044 
L 336.662929 389.327871 
Q 342.936229 379.098223 332.70658 372.824923 
L 299.705308 352.586996 
Q 289.47566 346.313696 283.20236 356.543345 
L 236.642712 432.466517 
Q 230.369412 442.696166 240.599061 448.969466 
L 273.600333 469.207393 
Q 283.829982 475.480692 290.103282 465.251044 
z
" style="fill:#ffffff;stroke:#ffffff;stroke-linejoin:miter;"/>
    </g>
    <g clip-path="url(#p8e7b672af0)">
     <!-- 0.62 -->
     <g transform="translate(272.782142 454.62891)rotate(-58.481423)scale(0.4 -0.4)">
      <use xlink:href="#DejaVuSans-48"/>
      <use x="63.623047" xlink:href="#DejaVuSans-46"/>
      <use x="95.410156" xlink:href="#DejaVuSans-54"/>
      <use x="159.033203" xlink:href="#DejaVuSans-50"/>
     </g>
    </g>
   </g>
   <g id="text_21">
    <g id="patch_22">
     <path clip-path="url(#p8e7b672af0)" d="M 396.943791 339.179501 
L 451.857987 269.061315 
Q 459.256952 259.613813 449.809449 252.214847 
L 419.331411 228.345477 
Q 409.883909 220.946511 402.484943 230.394014 
L 347.570747 300.5122 
Q 340.171782 309.959703 349.619284 317.358668 
L 380.097323 341.228039 
Q 389.544825 348.627004 396.943791 339.179501 
z
" style="fill:#ffffff;stroke:#ffffff;stroke-linejoin:miter;"/>
    </g>
    <g clip-path="url(#p8e7b672af0)">
     <!-- 0.41 -->
     <g transform="translate(380.947003 326.651357)rotate(-51.933152)scale(0.4 -0.4)">
      <use xlink:href="#DejaVuSans-48"/>
      <use x="63.623047" xlink:href="#DejaVuSans-46"/>
      <use x="95.410156" xlink:href="#DejaVuSans-52"/>
      <use x="159.033203" xlink:href="#DejaVuSans-49"/>
     </g>
    </g>
   </g>
   <g id="text_22">
    <g id="patch_23">
     <path clip-path="url(#p8e7b672af0)" d="M 97.195101 387.970273 
L 156.580125 454.344573 
Q 164.581476 463.287637 173.52454 455.286287 
L 202.375236 429.473596 
Q 211.318299 421.472245 203.316949 412.529182 
L 143.931925 346.154881 
Q 135.930574 337.211817 126.98751 345.213168 
L 98.136814 371.025858 
Q 89.19375 379.027209 97.195101 387.970273 
z
" style="fill:#ffffff;stroke:#ffffff;stroke-linejoin:miter;"/>
    </g>
    <g clip-path="url(#p8e7b672af0)">
     <!-- 0.32 -->
     <g transform="translate(112.337757 374.422152)rotate(-311.818967)scale(0.4 -0.4)">
      <use xlink:href="#DejaVuSans-48"/>
      <use x="63.623047" xlink:href="#DejaVuSans-46"/>
      <use x="95.410156" xlink:href="#DejaVuSans-51"/>
      <use x="159.033203" xlink:href="#DejaVuSans-50"/>
     </g>
    </g>
   </g>
   <g id="text_23">
    <g id="patch_24">
     <path clip-path="url(#p8e7b672af0)" d="M 372.965306 449.555641 
L 449.529468 404.05775 
Q 459.845481 397.927508 453.715239 387.611494 
L 433.938822 354.331605 
Q 427.80858 344.015592 417.492567 350.145834 
L 340.928406 395.643725 
Q 330.612392 401.773967 336.742634 412.089981 
L 356.519051 445.36987 
Q 362.649293 455.685883 372.965306 449.555641 
z
" style="fill:#ffffff;stroke:#ffffff;stroke-linejoin:miter;"/>
    </g>
    <g clip-path="url(#p8e7b672af0)">
     <!-- 0.41 -->
     <g transform="translate(362.585402 432.088266)rotate(-30.720699)scale(0.4 -0.4)">
      <use xlink:href="#DejaVuSans-48"/>
      <use x="63.623047" xlink:href="#DejaVuSans-46"/>
      <use x="95.410156" xlink:href="#DejaVuSans-52"/>
      <use x="159.033203" xlink:href="#DejaVuSans-49"/>
     </g>
    </g>
   </g>
   <g id="text_24">
    <g id="patch_25">
     <path clip-path="url(#p8e7b672af0)" d="M 183.944442 780.172323 
L 209.055689 694.723191 
Q 212.439099 683.210045 200.925953 679.826635 
L 163.784064 668.911613 
Q 152.270918 665.528203 148.887507 677.041349 
L 123.77626 762.490481 
Q 120.39285 774.003627 131.905996 777.387037 
L 169.047886 788.302059 
Q 180.561032 791.68547 183.944442 780.172323 
z
" style="fill:#ffffff;stroke:#ffffff;stroke-linejoin:miter;"/>
    </g>
    <g clip-path="url(#p8e7b672af0)">
     <!-- 0.62 -->
     <g transform="translate(164.450047 774.443435)rotate(-73.623328)scale(0.4 -0.4)">
      <use xlink:href="#DejaVuSans-48"/>
      <use x="63.623047" xlink:href="#DejaVuSans-46"/>
      <use x="95.410156" xlink:href="#DejaVuSans-54"/>
      <use x="159.033203" xlink:href="#DejaVuSans-50"/>
     </g>
    </g>
   </g>
   <g id="text_25">
    <g id="patch_26">
     <path clip-path="url(#p8e7b672af0)" d="M 223.747698 648.761557 
L 235.417996 737.056138 
Q 236.990415 748.952671 248.886948 747.380252 
L 287.265659 742.307562 
Q 299.162192 740.735143 297.589773 728.83861 
L 285.919475 640.544029 
Q 284.347056 628.647496 272.450523 630.219915 
L 234.071812 635.292605 
Q 222.175279 636.865024 223.747698 648.761557 
z
" style="fill:#ffffff;stroke:#ffffff;stroke-linejoin:miter;"/>
    </g>
    <g clip-path="url(#p8e7b672af0)">
     <!-- 0.50 -->
     <g transform="translate(243.891255 646.099091)rotate(-277.529401)scale(0.4 -0.4)">
      <use xlink:href="#DejaVuSans-48"/>
      <use x="63.623047" xlink:href="#DejaVuSans-46"/>
      <use x="95.410156" xlink:href="#DejaVuSans-53"/>
      <use x="159.033203" xlink:href="#DejaVuSans-48"/>
     </g>
    </g>
   </g>
   <g id="text_26">
    <g id="patch_27">
     <path clip-path="url(#p8e7b672af0)" d="M 252.670558 242.024217 
L 297.458347 319.005922 
Q 303.492912 329.378194 313.865184 323.343628 
L 347.326565 303.875869 
Q 357.698837 297.841304 351.664272 287.469032 
L 306.876482 210.487328 
Q 300.841917 200.115056 290.469645 206.149621 
L 257.008264 225.61738 
Q 246.635992 231.651946 252.670558 242.024217 
z
" style="fill:#ffffff;stroke:#ffffff;stroke-linejoin:miter;"/>
    </g>
    <g clip-path="url(#p8e7b672af0)">
     <!-- 0.25 -->
     <g transform="translate(270.233191 231.806315)rotate(-300.190752)scale(0.4 -0.4)">
      <use xlink:href="#DejaVuSans-48"/>
      <use x="63.623047" xlink:href="#DejaVuSans-46"/>
      <use x="95.410156" xlink:href="#DejaVuSans-50"/>
      <use x="159.033203" xlink:href="#DejaVuSans-53"/>
     </g>
    </g>
   </g>
   <g id="text_27">
    <g id="patch_28">
     <path clip-path="url(#p8e7b672af0)" d="M 386.69644 185.027372 
L 468.52271 149.862183 
Q 479.547723 145.124136 474.809677 134.099123 
L 459.524541 98.531971 
Q 454.786495 87.506958 443.761482 92.245005 
L 361.935212 127.410193 
Q 350.910199 132.14824 355.648245 143.173253 
L 370.933381 178.740405 
Q 375.671427 189.765418 386.69644 185.027372 
z
" style="fill:#ffffff;stroke:#ffffff;stroke-linejoin:miter;"/>
    </g>
    <g clip-path="url(#p8e7b672af0)">
     <!-- 0.37 -->
     <g transform="translate(378.673842 166.359498)rotate(-23.255822)scale(0.4 -0.4)">
      <use xlink:href="#DejaVuSans-48"/>
      <use x="63.623047" xlink:href="#DejaVuSans-46"/>
      <use x="95.410156" xlink:href="#DejaVuSans-51"/>
      <use x="159.033203" xlink:href="#DejaVuSans-55"/>
     </g>
    </g>
   </g>
   <g id="text_28">
    <g id="patch_29">
     <path clip-path="url(#p8e7b672af0)" d="M 140.425499 302.305708 
L 219.699141 261.712377 
Q 230.380221 256.24296 224.910804 245.56188 
L 207.266236 211.10427 
Q 201.796819 200.42319 191.115739 205.892607 
L 111.842096 246.485938 
Q 101.161016 251.955355 106.630433 262.636435 
L 124.275001 297.094045 
Q 129.744418 307.775125 140.425499 302.305708 
z
" style="fill:#ffffff;stroke:#ffffff;stroke-linejoin:miter;"/>
    </g>
    <g clip-path="url(#p8e7b672af0)">
     <!-- 0.51 -->
     <g transform="translate(131.164522 284.220192)rotate(-27.115439)scale(0.4 -0.4)">
      <use xlink:href="#DejaVuSans-48"/>
      <use x="63.623047" xlink:href="#DejaVuSans-46"/>
      <use x="95.410156" xlink:href="#DejaVuSans-53"/>
      <use x="159.033203" xlink:href="#DejaVuSans-49"/>
     </g>
    </g>
   </g>
   <g id="text_29">
    <g id="patch_30">
     <path clip-path="url(#p8e7b672af0)" d="M 358.322798 268.475601 
L 442.323518 298.073032 
Q 453.64151 302.060896 457.629374 290.742904 
L 470.494391 254.230591 
Q 474.482255 242.912599 463.164263 238.924735 
L 379.163543 209.327304 
Q 367.845551 205.33944 363.857687 216.657432 
L 350.992671 253.169745 
Q 347.004806 264.487737 358.322798 268.475601 
z
" style="fill:#ffffff;stroke:#ffffff;stroke-linejoin:miter;"/>
    </g>
    <g clip-path="url(#p8e7b672af0)">
     <!-- 0.49 -->
     <g transform="translate(365.075166 249.311647)rotate(-340.590226)scale(0.4 -0.4)">
      <use xlink:href="#DejaVuSans-48"/>
      <use x="63.623047" xlink:href="#DejaVuSans-46"/>
      <use x="95.410156" xlink:href="#DejaVuSans-52"/>
      <use x="159.033203" xlink:href="#DejaVuSans-57"/>
     </g>
    </g>
   </g>
   <g id="text_30">
    <g id="patch_31">
     <path clip-path="url(#p8e7b672af0)" d="M 444.930684 254.740498 
L 504.383043 188.426502 
Q 512.393466 179.491564 503.458527 171.481141 
L 474.634044 145.639183 
Q 465.699106 137.62876 457.688682 146.563698 
L 398.236324 212.877693 
Q 390.225901 221.812632 399.16084 229.823055 
L 427.985323 255.665013 
Q 436.920261 263.675436 444.930684 254.740498 
z
" style="fill:#ffffff;stroke:#ffffff;stroke-linejoin:miter;"/>
    </g>
    <g clip-path="url(#p8e7b672af0)">
     <!-- 0.47 -->
     <g transform="translate(429.801786 241.177016)rotate(-48.122882)scale(0.4 -0.4)">
      <use xlink:href="#DejaVuSans-48"/>
      <use x="63.623047" xlink:href="#DejaVuSans-46"/>
      <use x="95.410156" xlink:href="#DejaVuSans-52"/>
      <use x="159.033203" xlink:href="#DejaVuSans-55"/>
     </g>
    </g>
   </g>
   <g id="text_31">
    <g id="patch_32">
     <path clip-path="url(#p8e7b672af0)" d="M 155.014834 343.910539 
L 243.807206 350.841888 
Q 255.770809 351.775796 256.704718 339.812192 
L 259.717544 301.217108 
Q 260.651452 289.253504 248.687849 288.319596 
L 159.895477 281.388247 
Q 147.931873 280.454339 146.997965 292.417942 
L 143.985138 331.013027 
Q 143.05123 342.97663 155.014834 343.910539 
z
" style="fill:#ffffff;stroke:#ffffff;stroke-linejoin:miter;"/>
    </g>
    <g clip-path="url(#p8e7b672af0)">
     <!-- 0.54 -->
     <g transform="translate(156.596154 323.653416)rotate(-355.536403)scale(0.4 -0.4)">
      <use xlink:href="#DejaVuSans-48"/>
      <use x="63.623047" xlink:href="#DejaVuSans-46"/>
      <use x="95.410156" xlink:href="#DejaVuSans-53"/>
      <use x="159.033203" xlink:href="#DejaVuSans-52"/>
     </g>
    </g>
   </g>
   <g id="text_32">
    <g id="patch_33">
     <path clip-path="url(#p8e7b672af0)" d="M 405.695477 351.418605 
L 494.300587 342.403984 
Q 506.23896 341.189382 505.024358 329.25101 
L 501.106003 290.737322 
Q 499.891402 278.798949 487.953029 280.013551 
L 399.347919 289.028172 
Q 387.409546 290.242773 388.624148 302.181146 
L 392.542503 340.694834 
Q 393.757105 352.633206 405.695477 351.418605 
z
" style="fill:#ffffff;stroke:#ffffff;stroke-linejoin:miter;"/>
    </g>
    <g clip-path="url(#p8e7b672af0)">
     <!-- 0.71 -->
     <g transform="translate(403.638879 331.204204)rotate(-5.809243)scale(0.4 -0.4)">
      <use xlink:href="#DejaVuSans-48"/>
      <use x="63.623047" xlink:href="#DejaVuSans-46"/>
      <use x="95.410156" xlink:href="#DejaVuSans-55"/>
      <use x="159.033203" xlink:href="#DejaVuSans-49"/>
     </g>
    </g>
   </g>
   <g id="text_33">
    <g id="patch_34">
     <path clip-path="url(#p8e7b672af0)" d="M 689.484144 190.085753 
L 764.919952 237.430952 
Q 775.083934 243.810094 781.463077 233.646112 
L 802.042456 200.856681 
Q 808.421599 190.692698 798.257617 184.313556 
L 722.821809 136.968357 
Q 712.657827 130.589214 706.278684 140.753197 
L 685.699304 173.542628 
Q 679.320162 183.70661 689.484144 190.085753 
z
" style="fill:#ffffff;stroke:#ffffff;stroke-linejoin:miter;"/>
    </g>
    <g clip-path="url(#p8e7b672af0)">
     <!-- 0.72 -->
     <g transform="translate(700.285494 172.875801)rotate(-327.886699)scale(0.4 -0.4)">
      <use xlink:href="#DejaVuSans-48"/>
      <use x="63.623047" xlink:href="#DejaVuSans-46"/>
      <use x="95.410156" xlink:href="#DejaVuSans-55"/>
      <use x="159.033203" xlink:href="#DejaVuSans-50"/>
     </g>
    </g>
   </g>
   <g id="text_34">
    <g id="patch_35">
     <path clip-path="url(#p8e7b672af0)" d="M 1263.20486 726.312862 
L 1318.733283 656.680088 
Q 1326.215007 647.297988 1316.832907 639.816264 
L 1286.565861 615.679909 
Q 1277.183761 608.198185 1269.702037 617.580285 
L 1214.173614 687.213059 
Q 1206.69189 696.595159 1216.07399 704.076883 
L 1246.341036 728.213237 
Q 1255.723136 735.694962 1263.20486 726.312862 
z
" style="fill:#ffffff;stroke:#ffffff;stroke-linejoin:miter;"/>
    </g>
    <g clip-path="url(#p8e7b672af0)">
     <!-- 0.75 -->
     <g transform="translate(1247.318815 713.644588)rotate(-51.429508)scale(0.4 -0.4)">
      <use xlink:href="#DejaVuSans-48"/>
      <use x="63.623047" xlink:href="#DejaVuSans-46"/>
      <use x="95.410156" xlink:href="#DejaVuSans-55"/>
      <use x="159.033203" xlink:href="#DejaVuSans-53"/>
     </g>
    </g>
   </g>
   <g id="text_35">
    <g id="patch_36">
     <path clip-path="url(#p8e7b672af0)" d="M 163.204152 968.5863 
L 245.249465 933.935246 
Q 256.303992 929.266473 251.635218 918.211947 
L 236.57356 882.549584 
Q 231.904787 871.495057 220.85026 876.163831 
L 138.804947 910.814885 
Q 127.750421 915.483658 132.419194 926.538185 
L 147.480852 962.200547 
Q 152.149626 973.255074 163.204152 968.5863 
z
" style="fill:#ffffff;stroke:#ffffff;stroke-linejoin:miter;"/>
    </g>
    <g clip-path="url(#p8e7b672af0)">
     <!-- 0.64 -->
     <g transform="translate(155.298849 949.868454)rotate(-22.8963)scale(0.4 -0.4)">
      <use xlink:href="#DejaVuSans-48"/>
      <use x="63.623047" xlink:href="#DejaVuSans-46"/>
      <use x="95.410156" xlink:href="#DejaVuSans-54"/>
      <use x="159.033203" xlink:href="#DejaVuSans-52"/>
     </g>
    </g>
   </g>
   <g id="PathCollection_1">
    <defs>
     <path d="M 0 31.622777 
C 8.386458 31.622777 16.430558 28.290801 22.36068 22.36068 
C 28.290801 16.430558 31.622777 8.386458 31.622777 0 
C 31.622777 -8.386458 28.290801 -16.430558 22.36068 -22.36068 
C 16.430558 -28.290801 8.386458 -31.622777 0 -31.622777 
C -8.386458 -31.622777 -16.430558 -28.290801 -22.36068 -22.36068 
C -28.290801 -16.430558 -31.622777 -8.386458 -31.622777 0 
C -31.622777 8.386458 -28.290801 16.430558 -22.36068 22.36068 
C -16.430558 28.290801 -8.386458 31.622777 0 31.622777 
z
" id="mfdc989d3a2" style="stroke:#f4a261;"/>
    </defs>
    <g clip-path="url(#p8e7b672af0)">
     <use style="fill:#f4a261;stroke:#f4a261;" x="539.426143" xlink:href="#mfdc989d3a2" y="439.392468"/>
     <use style="fill:#f4a261;stroke:#f4a261;" x="312.667231" xlink:href="#mfdc989d3a2" y="573.203625"/>
     <use style="fill:#f4a261;stroke:#f4a261;" x="202.174396" xlink:href="#mfdc989d3a2" y="45.818182"/>
     <use style="fill:#f4a261;stroke:#f4a261;" x="235.057504" xlink:href="#mfdc989d3a2" y="495.031854"/>
     <use style="fill:#f4a261;stroke:#f4a261;" x="266.086692" xlink:href="#mfdc989d3a2" y="202.730715"/>
     <use style="fill:#f4a261;stroke:#f4a261;" x="338.248137" xlink:href="#mfdc989d3a2" y="326.762535"/>
     <use style="fill:#f4a261;stroke:#f4a261;" x="564.37123" xlink:href="#mfdc989d3a2" y="74.541661"/>
     <use style="fill:#f4a261;stroke:#f4a261;" x="65.454545" xlink:href="#mfdc989d3a2" y="305.4676"/>
     <use style="fill:#f4a261;stroke:#f4a261;" x="555.400369" xlink:href="#mfdc989d3a2" y="304.669621"/>
     <use style="fill:#f4a261;stroke:#f4a261;" x="923.370531" xlink:href="#mfdc989d3a2" y="299.857647"/>
     <use style="fill:#f4a261;stroke:#f4a261;" x="1158.361443" xlink:href="#mfdc989d3a2" y="807.494205"/>
     <use style="fill:#f4a261;stroke:#f4a261;" x="97.774445" xlink:href="#mfdc989d3a2" y="962.181818"/>
     <use style="fill:#f4a261;stroke:#f4a261;" x="286.279967" xlink:href="#mfdc989d3a2" y="882.568313"/>
     <use style="fill:#f4a261;stroke:#f4a261;" x="1374.545455" xlink:href="#mfdc989d3a2" y="536.398941"/>
    </g>
   </g>
   <g id="text_36">
    <g clip-path="url(#p8e7b672af0)">
     <!-- 0 -->
     <g transform="translate(526.701143 450.429968)scale(0.4 -0.4)">
      <use xlink:href="#DejaVuSans-48"/>
     </g>
    </g>
   </g>
   <g id="text_37">
    <g clip-path="url(#p8e7b672af0)">
     <!-- 1 -->
     <g transform="translate(299.942231 584.241125)scale(0.4 -0.4)">
      <use xlink:href="#DejaVuSans-49"/>
     </g>
    </g>
   </g>
   <g id="text_38">
    <g clip-path="url(#p8e7b672af0)">
     <!-- 2 -->
     <g transform="translate(189.449396 56.855682)scale(0.4 -0.4)">
      <use xlink:href="#DejaVuSans-50"/>
     </g>
    </g>
   </g>
   <g id="text_39">
    <g clip-path="url(#p8e7b672af0)">
     <!-- 3 -->
     <g transform="translate(222.332504 506.069354)scale(0.4 -0.4)">
      <use xlink:href="#DejaVuSans-51"/>
     </g>
    </g>
   </g>
   <g id="text_40">
    <g clip-path="url(#p8e7b672af0)">
     <!-- 4 -->
     <g transform="translate(253.361692 213.768215)scale(0.4 -0.4)">
      <use xlink:href="#DejaVuSans-52"/>
     </g>
    </g>
   </g>
   <g id="text_41">
    <g clip-path="url(#p8e7b672af0)">
     <!-- 5 -->
     <g transform="translate(325.523137 337.800035)scale(0.4 -0.4)">
      <use xlink:href="#DejaVuSans-53"/>
     </g>
    </g>
   </g>
   <g id="text_42">
    <g clip-path="url(#p8e7b672af0)">
     <!-- 6 -->
     <g transform="translate(551.64623 85.579161)scale(0.4 -0.4)">
      <use xlink:href="#DejaVuSans-54"/>
     </g>
    </g>
   </g>
   <g id="text_43">
    <g clip-path="url(#p8e7b672af0)">
     <!-- 7 -->
     <g transform="translate(52.729545 316.5051)scale(0.4 -0.4)">
      <use xlink:href="#DejaVuSans-55"/>
     </g>
    </g>
   </g>
   <g id="text_44">
    <g clip-path="url(#p8e7b672af0)">
     <!-- 8 -->
     <g transform="translate(542.675369 315.707121)scale(0.4 -0.4)">
      <use xlink:href="#DejaVuSans-56"/>
     </g>
    </g>
   </g>
   <g id="text_45">
    <g clip-path="url(#p8e7b672af0)">
     <!-- 9 -->
     <g transform="translate(910.645531 310.895147)scale(0.4 -0.4)">
      <use xlink:href="#DejaVuSans-57"/>
     </g>
    </g>
   </g>
   <g id="text_46">
    <g clip-path="url(#p8e7b672af0)">
     <!-- 10 -->
     <g transform="translate(1132.911443 818.531705)scale(0.4 -0.4)">
      <use xlink:href="#DejaVuSans-49"/>
      <use x="63.623047" xlink:href="#DejaVuSans-48"/>
     </g>
    </g>
   </g>
   <g id="text_47">
    <g clip-path="url(#p8e7b672af0)">
     <!-- 11 -->
     <g transform="translate(72.324445 973.219318)scale(0.4 -0.4)">
      <use xlink:href="#DejaVuSans-49"/>
      <use x="63.623047" xlink:href="#DejaVuSans-49"/>
     </g>
    </g>
   </g>
   <g id="text_48">
    <g clip-path="url(#p8e7b672af0)">
     <!-- 12 -->
     <g transform="translate(260.829967 893.605813)scale(0.4 -0.4)">
      <use xlink:href="#DejaVuSans-49"/>
      <use x="63.623047" xlink:href="#DejaVuSans-50"/>
     </g>
    </g>
   </g>
   <g id="text_49">
    <g clip-path="url(#p8e7b672af0)">
     <!-- 13 -->
     <g transform="translate(1349.095455 547.436441)scale(0.4 -0.4)">
      <use xlink:href="#DejaVuSans-49"/>
      <use x="63.623047" xlink:href="#DejaVuSans-51"/>
     </g>
    </g>
   </g>
  </g>
 </g>
 <defs>
  <clipPath id="p8e7b672af0">
   <rect height="1008" width="1440" x="0" y="0"/>
  </clipPath>
 </defs>
</svg>
